{"title":"Komban (2015) TC Rip x264 AAC 700MB","uid":11799963,"size":734725663,"categoryP":"video","categoryS":"movies","magnet":"?xt=urn:btih:29b6413b9737ed8dc510536351c84b0eb0efd765&amp;dn=Komban+%282015%29+TC+Rip+x264+AAC+700MB&amp;tr=udp%3A%2F%2Ftracker.openbittorrent.com%3A80&amp;tr=udp%3A%2F%2Fopen.demonii.com%3A1337&amp;tr=udp%3A%2F%2Ftracker.coppersurfer.tk%3A6969&amp;tr=udp%3A%2F%2Fexodus.desync.com%3A6969","seeders":6,"leechers":0,"uploader":"TeamXDN","files":1,"time":1428344050,"description":"Komban (2015) TC Rip x264 AAC 700MB\n\nFormat                                   : MPEG-4\nFormat profile                           : Base Media\nCodec ID                                 : isom\nFile size                                : 701 MiB\nDuration                                 : 2h 13mn\nOverall bit rate mode                    : Variable\nOverall bit rate                         : 734 Kbps\nEncoded date                             : UTC 2015-04-06 15:47:04\nTagged date                              : UTC 2015-04-06 15:47:04\n\nVideo\nID                                       : 1\nFormat                                   : AVC\nFormat/Info                              : Advanced Video Codec\nFormat profile                           : &lt;a class=&quot;__cf_email__&quot; href=&quot;/cdn-cgi/l/email-protection&quot; data-cfemail=&quot;1c54757b745c502e322d&quot;&gt;[email&amp;#160;protected]&lt;/a&gt;&lt;script cf-hash='f9e31' type=&quot;text/javascript&quot;&gt;\n/* &lt;![CDATA[ */!function(){try{var t=&quot;currentScript&quot;in document?document.currentScript:function(){for(var t=document.getElementsByTagName(&quot;script&quot;),e=t.length;e--;)if(t[e].getAttribute(&quot;cf-hash&quot;))return t[e]}();if(t&amp;&amp;t.previousSibling){var e,r,n,i,c=t.previousSibling,a=c.getAttribute(&quot;data-cfemail&quot;);if(a){for(e=&quot;&quot;,r=parseInt(a.substr(0,2),16),n=2;a.length-n;n+=2)i=parseInt(a.substr(n,2),16)^r,e+=String.fromCharCode(i);e=document.createTextNode(e),c.parentNode.replaceChild(e,c)}}}catch(u){}}();/* ]]&gt; */&lt;/script&gt;\nFormat settings, CABAC                   : Yes\nFormat settings, ReFrames                : 4 frames\nCodec ID                                 : avc1\nCodec ID/Info                            : Advanced Video Coding\nDuration                                 : 2h 13mn\nBit rate                                 : 669 Kbps\nMaximum bit rate                         : 2 538 Kbps\nWidth                                    : 608 pixels\nHeight                                   : 256 pixels\nDisplay aspect ratio                     : 2.40:1\nFrame rate mode                          : Constant\nFrame rate                               : 23.976 fps\nColor space                              : YUV\nChroma subsampling                       : 4:2:0\nBit depth                                : 8 bits\nScan type                                : Progressive\nBits/(Pixel*Frame)                       : 0.179\nStream size                              : 639 MiB (91%)\nWriting library                          : x264 core 146 r2538 121396c\nEncoded date                             : UTC 2015-04-05 18:12:16\nTagged date                              : UTC 2015-04-06 15:48:39\n\nAudio\nID                                       : 2\nFormat                                   : AAC\nFormat/Info                              : Advanced Audio Codec\nFormat profile                           : HE-AAC / LC\nCodec ID                                 : 40\nDuration                                 : 2h 13mn\nBit rate mode                            : Variable\nBit rate                                 : 62.0 Kbps\nMaximum bit rate                         : 70.2 Kbps\nChannel(s)                               : 2 channels\nChannel positions                        : Front: L R\nSampling rate                            : 24.0 KHz / 12.0 KHz\nCompression mode                         : Lossy\nStream size                              : 59.2 MiB (8%)\nEncoded date                             : UTC 2015-04-05 18:24:40\nTagged date                              : UTC 2015-04-06 15:48:39","torrent":{"xt":"urn:btih:29b6413b9737ed8dc510536351c84b0eb0efd765","amp;dn":"Komban+%282015%29+TC+Rip+x264+AAC+700MB","amp;tr":["udp%3A%2F%2Ftracker.openbittorrent.com%3A80","udp%3A%2F%2Fopen.demonii.com%3A1337","udp%3A%2F%2Ftracker.coppersurfer.tk%3A6969","udp%3A%2F%2Fexodus.desync.com%3A6969"],"infoHash":"29b6413b9737ed8dc510536351c84b0eb0efd765","infoHashBuffer":{"type":"Buffer","data":[41,182,65,59,151,55,237,141,197,16,83,99,81,200,75,14,176,239,215,101]},"announce":[],"urlList":[]}}